<?xml version="1.0" encoding="iso-8859-1"?>
<!-- Generator: Adobe Illustrator 19.0.0, SVG Export Plug-In . SVG Version: 6.00 Build 0)  -->
<svg version="1.1" id="Layer_1" xmlns="http://www.w3.org/2000/svg" xmlns:xlink="http://www.w3.org/1999/xlink" x="0px" y="0px"
	 viewBox="0 0 300 300" style="enable-background:new 0 0 300 300;" xml:space="preserve">
<g>
	<g>
		<g>
			<path d="M234.373,193.75c-3.456,0-6.25,2.794-6.25,6.25v35.025c0,25.794-17.45,52.475-46.656,52.475H81.454
				c-27.919,0-53.331-25.013-53.331-52.475V150h206.25c3.456,0,6.25-2.794,6.25-6.25s-2.794-6.25-6.25-6.25h-6.25V85.025
				C228.123,34.169,192.96,0,140.623,0h-25c-52.337,0-87.5,34.169-87.5,85.025V137.5h-6.25c-3.456,0-6.25,2.794-6.25,6.25v91.275
				c0,34.006,31.375,64.975,65.831,64.975h100.012c33.175,0,59.156-28.538,59.156-64.975V200
				C240.623,196.544,237.829,193.75,234.373,193.75z M40.623,85.025c0-44.056,29.438-72.525,75-72.525h25
				c45.563,0,75,28.469,75,72.525V137.5h-175V85.025z"/>
			<path d="M283.229,133.875c-2-2.819-5.906-3.469-8.719-1.487L128.804,235.6l-27.513-27.519c-2.444-2.444-6.394-2.444-8.837,0
				c-2.444,2.444-2.444,6.394,0,8.838l31.25,31.25c1.206,1.206,2.806,1.831,4.419,1.831c1.256,0,2.513-0.381,3.625-1.15l150-106.25
				C284.56,140.594,285.217,136.694,283.229,133.875z"/>
		</g>
	</g>
</g>
<g>
</g>
<g>
</g>
<g>
</g>
<g>
</g>
<g>
</g>
<g>
</g>
<g>
</g>
<g>
</g>
<g>
</g>
<g>
</g>
<g>
</g>
<g>
</g>
<g>
</g>
<g>
</g>
<g>
</g>
</svg>
