<?xml version="1.0" encoding="UTF-8" standalone="no"?>
<!-- Created with Inkscape (http://www.inkscape.org/) -->

<svg
   xmlns:dc="http://purl.org/dc/elements/1.1/"
   xmlns:cc="http://creativecommons.org/ns#"
   xmlns:rdf="http://www.w3.org/1999/02/22-rdf-syntax-ns#"
   xmlns:svg="http://www.w3.org/2000/svg"
   xmlns="http://www.w3.org/2000/svg"
   xmlns:sodipodi="http://sodipodi.sourceforge.net/DTD/sodipodi-0.dtd"
   xmlns:inkscape="http://www.inkscape.org/namespaces/inkscape"
   version="1.1"
   width="282"
   height="75"
   id="Monero-Logo"
   inkscape:version="0.91 r13725"
   sodipodi:docname="mineforacause.svg"
   inkscape:export-filename="/home/chris/Desktop/thinlowercase"
   inkscape:export-xdpi="90"
   inkscape:export-ydpi="90">
  <sodipodi:namedview
     pagecolor="#706d6d"
     bordercolor="#666666"
     borderopacity="1"
     objecttolerance="10"
     gridtolerance="10"
     guidetolerance="10"
     inkscape:pageopacity="0"
     inkscape:pageshadow="2"
     inkscape:window-width="1855"
     inkscape:window-height="1056"
     id="namedview3393"
     showgrid="false"
     inkscape:snap-global="true"
     inkscape:snap-intersection-paths="true"
     inkscape:object-nodes="true"
     inkscape:zoom="4.2663201"
     inkscape:cx="144.59715"
     inkscape:cy="49.015133"
     inkscape:window-x="65"
     inkscape:window-y="24"
     inkscape:window-maximized="1"
     inkscape:current-layer="text3395-3" />
  <metadata
     id="metadata8">
    <rdf:RDF>
      <cc:Work
         rdf:about="">
        <dc:format>image/svg+xml</dc:format>
        <dc:type
           rdf:resource="http://purl.org/dc/dcmitype/StillImage" />
        <dc:title />
      </cc:Work>
    </rdf:RDF>
  </metadata>
  <defs
     id="defs6">
    <inkscape:path-effect
       effect="spiro"
       id="path-effect4442"
       is_visible="true" />
    <inkscape:path-effect
       effect="spiro"
       id="path-effect4349"
       is_visible="true" />
  </defs>
  <path
     style="fill:#d40000;fill-opacity:1;fill-rule:evenodd;stroke:none;stroke-width:1px;stroke-linecap:butt;stroke-linejoin:miter;stroke-opacity:1"
     d="m 17.787215,56.079441 15.55,0 0,-19.537 15.983,15.984 15.984,-15.984 0,19.537 192.800585,0 4.05194,-6.723677 -188.848925,-0.797023 0,-31.049 -23.987,23.987 -23.987,-23.987 0,31.049 -11.036,0 3.4894,7.5207 z"
     id="path4347"
     inkscape:path-effect="#path-effect4349"
     inkscape:original-d="m 17.787215,56.079441 15.55,0 0,-19.537 15.983,15.984 15.984,-15.984 0,19.537 c 0,0 210.132955,0.385164 192.800585,0 32.43693,-4.14794 -30.10496,18.983537 4.05194,-6.723677 l -188.848925,-0.797023 0,-31.049 -23.987,23.987 -23.987,-23.987 0,31.049 -11.036,0 z"
     inkscape:connector-curvature="0"
     sodipodi:nodetypes="ccccccccccccccc" />
  <text
     xml:space="preserve"
     style="font-style:normal;font-weight:normal;font-size:40px;line-height:125%;font-family:Sans;letter-spacing:0px;word-spacing:0px;fill:#000000;fill-opacity:1;stroke:none;stroke-width:1px;stroke-linecap:butt;stroke-linejoin:miter;stroke-opacity:1"
     x="187.3833"
     y="23.381205"
     id="text4391"
     sodipodi:linespacing="125%"><tspan
       sodipodi:role="line"
       id="tspan4393"
       x="187.3833"
       y="23.381205" /></text>
  <text
     xml:space="preserve"
     style="font-style:normal;font-weight:normal;font-size:40px;line-height:125%;font-family:Sans;letter-spacing:0px;word-spacing:0px;fill:#000000;fill-opacity:1;stroke:none;stroke-width:1px;stroke-linecap:butt;stroke-linejoin:miter;stroke-opacity:1"
     x="195.75"
     y="18.75"
     id="text4424"
     sodipodi:linespacing="125%"><tspan
       sodipodi:role="line"
       id="tspan4426"
       x="195.75"
       y="18.75" /></text>
  <text
     xml:space="preserve"
     style="font-style:normal;font-weight:normal;font-size:40px;line-height:125%;font-family:sans-serif;letter-spacing:-40.14999771px;word-spacing:0px;fill:#000000;fill-opacity:1;stroke:none;stroke-width:1px;stroke-linecap:butt;stroke-linejoin:miter;stroke-opacity:1"
     x="263.04373"
     y="-46.975922"
     id="text5106"
     sodipodi:linespacing="125%"><tspan
       sodipodi:role="line"
       id="tspan5108"
       x="263.04373"
       y="-46.975922" /></text>
  <text
     xml:space="preserve"
     style="font-style:normal;font-weight:normal;font-size:40px;line-height:125%;font-family:sans-serif;letter-spacing:-40.14999771px;word-spacing:0px;fill:#000000;fill-opacity:1;stroke:none;stroke-width:1px;stroke-linecap:butt;stroke-linejoin:miter;stroke-opacity:1"
     x="50.204582"
     y="-67.482018"
     id="text5114"
     sodipodi:linespacing="125%"><tspan
       sodipodi:role="line"
       id="tspan5116"
       x="50.204582"
       y="-67.482018" /></text>
  <g
     transform="scale(1.0133748,0.98680172)"
     style="font-style:normal;font-variant:normal;font-weight:normal;font-stretch:normal;font-size:27.62922478px;line-height:125%;font-family:'Century Gothic';-inkscape-font-specification:'Century Gothic';letter-spacing:-1.78363478px;word-spacing:0px;fill:#f9f9f9;fill-opacity:1;stroke:none;stroke-width:1px;stroke-linecap:butt;stroke-linejoin:miter;stroke-opacity:1"
     id="text3395-3">
    <path
       d="m 74.423294,26.219259 3.750452,0 0,19.845015 -3.750452,0 0,-19.845015 z"
       style="font-weight:bold;letter-spacing:-1.78363478px;fill:#f9f9f9;fill-opacity:1"
       id="path4319" />
    <path
       d="m 80.639723,26.219259 3.615543,0 8.512716,13.059126 0,-13.059126 3.777433,0 0,19.845015 -3.629034,0 -8.499225,-13.018653 0,13.018653 -3.777433,0 0,-19.845015 z"
       style="font-weight:bold;letter-spacing:-1.78363478px;fill:#f9f9f9;fill-opacity:1"
       id="path4321" />
    <path
       d="m 99.308191,26.219259 10.833139,0 0,3.696488 -7.08269,0 0,3.588562 7.08269,0 0,3.629034 -7.08269,0 0,5.220952 7.08269,0 0,3.709979 -10.833139,0 0,-19.845015 z"
       style="font-weight:bold;letter-spacing:-1.78363478px;fill:#f9f9f9;fill-opacity:1"
       id="path4323" />
    <path
       d="m 123.68044,25.720099 0,1.848244 q -1.0388,-0.445198 -1.78079,-0.445198 -0.55313,0 -0.91738,0.229344 -0.36425,0.215854 -0.45869,0.512652 -0.0944,0.283307 -0.0944,1.537955 l 0,1.983152 3.06242,0 0,1.6189 -3.07591,0 0,13.059126 -1.88872,0 0,-13.059126 -1.92919,0 0,-1.6189 1.92919,0 0,-2.293441 q 0,-1.578428 0.28331,-2.252969 0.2968,-0.674542 0.98483,-1.079267 0.70152,-0.418216 1.68635,-0.418216 0.91738,0 2.19901,0.377744 z"
       style="font-style:normal;font-variant:normal;font-weight:normal;font-stretch:normal;font-family:'Century Gothic';-inkscape-font-specification:'Century Gothic Semi-Bold';fill:#f9f9f9"
       id="path4325" />
    <path
       d="m 131.48878,31.008505 q 3.3862,0 5.61219,2.455331 2.02363,2.239479 2.02363,5.301898 0,3.075909 -2.14505,5.382842 -2.13155,2.293441 -5.49077,2.293441 -3.3727,0 -5.51775,-2.293441 -2.13155,-2.306933 -2.13155,-5.382842 0,-3.048929 2.02363,-5.288407 2.22598,-2.468822 5.62567,-2.468822 z m 0,1.848244 q -2.3474,0 -4.03375,1.740317 -1.68636,1.740318 -1.68636,4.20914 0,1.591918 0.76898,2.967983 0.76898,1.376065 2.07759,2.131552 1.30861,0.741995 2.87354,0.741995 1.56494,0 2.87355,-0.741995 1.30861,-0.755487 2.07759,-2.131552 0.76898,-1.376065 0.76898,-2.967983 0,-2.468822 -1.69985,-4.20914 -1.68635,-1.740317 -4.02027,-1.740317 z"
       style="font-style:normal;font-variant:normal;font-weight:normal;font-stretch:normal;font-family:'Century Gothic';-inkscape-font-specification:'Century Gothic Semi-Bold';fill:#f9f9f9"
       id="path4327" />
    <path
       d="m 140.12007,31.386248 1.92919,0 0,2.145043 q 0.86341,-1.268139 1.82126,-1.888717 0.95785,-0.634069 1.99664,-0.634069 0.78247,0 1.67287,0.499161 l -0.98483,1.591918 q -0.5936,-0.256326 -0.99832,-0.256326 -0.94436,0 -1.82127,0.782468 -0.8769,0.768978 -1.33559,2.401369 -0.35076,1.254647 -0.35076,5.072553 l 0,4.964626 -1.92919,0 0,-14.678026 z"
       style="font-style:normal;font-variant:normal;font-weight:normal;font-stretch:normal;font-family:'Century Gothic';-inkscape-font-specification:'Century Gothic Semi-Bold';fill:#f9f9f9"
       id="path4329" />
    <path
       d="m 167.86502,31.386248 0,14.678026 -1.86173,0 0,-2.522786 q -1.1872,1.443519 -2.67119,2.172024 -1.4705,0.728505 -3.22431,0.728505 -3.11638,0 -5.32887,-2.252969 -2.19901,-2.26646 -2.19901,-5.504259 0,-3.170346 2.22599,-5.423315 2.22598,-2.252969 5.35586,-2.252969 1.80777,0 3.26478,0.768977 1.4705,0.768978 2.57675,2.306933 l 0,-2.698167 1.86173,0 z m -7.55486,1.443519 q -1.57843,0 -2.91402,0.782469 -1.3356,0.768977 -2.13155,2.172024 -0.78247,1.403046 -0.78247,2.967983 0,1.551445 0.79596,2.967983 0.79596,1.416537 2.13155,2.212496 1.34908,0.782469 2.88704,0.782469 1.55144,0 2.941,-0.782469 1.38955,-0.782468 2.13155,-2.11806 0.75549,-1.335593 0.75549,-3.008456 0,-2.549767 -1.68636,-4.263103 -1.67286,-1.713336 -4.12819,-1.713336 z"
       style="font-style:normal;font-variant:normal;font-weight:normal;font-stretch:normal;font-family:'Century Gothic';-inkscape-font-specification:'Century Gothic Semi-Bold';fill:#f9f9f9"
       id="path4331" />
    <path
       d="m 194.67911,29.713385 -2.64421,2.522786 q -2.69816,-2.846566 -6.07087,-2.846566 -2.84657,0 -4.80274,1.94268 -1.94268,1.94268 -1.94268,4.789245 0,1.983153 0.86342,3.521108 0.86341,1.537955 2.44184,2.414859 1.57842,0.876904 3.50761,0.876904 1.64589,0 3.00846,-0.607088 1.36257,-0.620578 2.99496,-2.239478 l 2.56326,2.671185 q -2.199,2.145042 -4.15517,2.981474 -1.95617,0.822941 -4.46547,0.822941 -4.62735,0 -7.58185,-2.927511 -2.941,-2.941001 -2.941,-7.527884 0,-2.967984 1.33559,-5.274916 1.34909,-2.306932 3.84489,-3.709979 2.5093,-1.403046 5.39633,-1.403046 2.45534,0 4.7218,1.038794 2.27995,1.038794 3.92583,2.954492 z"
       style="font-weight:bold;letter-spacing:-1.78363478px;fill:#f9f9f9;fill-opacity:1"
       id="path4333" />
    <path
       d="m 202.23113,26.219259 3.8314,0 7.63581,19.845015 -3.92584,0 -1.55144,-4.087722 -8.0945,0 -1.6189,4.087722 -3.92583,0 7.6493,-19.845015 z m 1.94268,5.261425 -2.6442,6.81287 5.27491,0 -2.63071,-6.81287 z"
       style="font-weight:bold;letter-spacing:-1.78363478px;fill:#f9f9f9;fill-opacity:1"
       id="path4335" />
    <path
       d="m 214.7208,26.219259 3.79092,0 0,12.843273 q 0,1.659372 0.28331,2.347405 0.2968,0.688032 0.95785,1.106248 0.67454,0.404725 1.6189,0.404725 0.99832,0 1.71334,-0.458688 0.7285,-0.458689 0.99832,-1.160212 0.28331,-0.715014 0.28331,-2.711657 l 0,-12.371094 3.79092,0 0,11.83146 q 0,2.994965 -0.33727,4.155177 -0.33727,1.160211 -1.29512,2.239478 -0.94436,1.079267 -2.18552,1.605409 -1.24115,0.512652 -2.88703,0.512652 -2.15854,0 -3.76395,-0.984831 -1.59191,-0.998322 -2.27995,-2.482313 -0.68803,-1.497483 -0.68803,-5.045572 l 0,-11.83146 z"
       style="font-weight:bold;letter-spacing:-1.78363478px;fill:#f9f9f9;fill-opacity:1"
       id="path4337" />
    <path
       d="m 241.17348,28.917426 -2.79261,2.468822 q -1.4705,-2.050606 -2.99496,-2.050606 -0.742,0 -1.21418,0.404725 -0.47217,0.391234 -0.47217,0.890395 0,0.49916 0.33727,0.944358 0.45868,0.593596 2.76562,2.549767 2.15853,1.807772 2.61722,2.279951 1.14672,1.160211 1.6189,2.225987 0.48567,1.052285 0.48567,2.306933 0,2.44184 -1.68636,4.033758 -1.68635,1.591919 -4.39801,1.591919 -2.11806,0 -3.69649,-1.038794 -1.56493,-1.038795 -2.68467,-3.264782 l 3.17034,-1.915698 q 1.43003,2.630712 3.29177,2.630712 0.97134,0 1.63239,-0.566615 0.66105,-0.566615 0.66105,-1.30861 0,-0.674542 -0.49916,-1.349084 -0.49916,-0.674541 -2.19901,-2.064097 -3.2378,-2.644203 -4.18216,-4.074231 -0.94435,-1.44352 -0.94435,-2.873548 0,-2.064097 1.56493,-3.534598 1.57843,-1.483991 3.88536,-1.483991 1.48399,0 2.81959,0.688032 1.34908,0.688032 2.91402,2.509295 z"
       style="font-weight:bold;letter-spacing:-1.78363478px;fill:#f9f9f9;fill-opacity:1"
       id="path4339" />
    <path
       d="m 243.35614,26.219259 10.83314,0 0,3.696488 -7.08269,0 0,3.588562 7.08269,0 0,3.629034 -7.08269,0 0,5.220952 7.08269,0 0,3.709979 -10.83314,0 0,-19.845015 z"
       style="font-weight:bold;letter-spacing:-1.78363478px;fill:#f9f9f9;fill-opacity:1"
       id="path4341" />
  </g>
  <path
     style="fill:#800000;fill-opacity:1;fill-rule:evenodd;stroke:none;stroke-width:1px;stroke-linecap:butt;stroke-linejoin:miter;stroke-opacity:1"
     d="m 49.320814,41.495848 23.986107,-23.986107 0,31.047844 188.839139,0.796994 -0.79754,1.342322 -190.679514,0.117192 0,-27.498194 -21.348191,18.180842 z"
     id="path5138"
     inkscape:connector-curvature="0"
     sodipodi:nodetypes="ccccccccc" />
</svg>
