<?xml version="1.0" encoding="UTF-8" standalone="no"?>
<!-- Created with Inkscape (http://www.inkscape.org/) -->

<svg
   xmlns:dc="http://purl.org/dc/elements/1.1/"
   xmlns:cc="http://creativecommons.org/ns#"
   xmlns:rdf="http://www.w3.org/1999/02/22-rdf-syntax-ns#"
   xmlns:svg="http://www.w3.org/2000/svg"
   xmlns="http://www.w3.org/2000/svg"
   xmlns:sodipodi="http://sodipodi.sourceforge.net/DTD/sodipodi-0.dtd"
   xmlns:inkscape="http://www.inkscape.org/namespaces/inkscape"
   version="1.1"
   width="282"
   height="75"
   id="Monero-Logo"
   inkscape:version="0.91 r13725"
   sodipodi:docname="Monero-Logo-longtail.svg"
   inkscape:export-filename="/home/chris/Development/mineforacause/mineforacause/media/monerologotest"
   inkscape:export-xdpi="90"
   inkscape:export-ydpi="90">
  <sodipodi:namedview
     pagecolor="#706d6d"
     bordercolor="#666666"
     borderopacity="1"
     objecttolerance="10"
     gridtolerance="10"
     guidetolerance="10"
     inkscape:pageopacity="0"
     inkscape:pageshadow="2"
     inkscape:window-width="1855"
     inkscape:window-height="1056"
     id="namedview3393"
     showgrid="false"
     inkscape:snap-global="true"
     inkscape:snap-intersection-paths="true"
     inkscape:object-nodes="true"
     inkscape:zoom="2.8284271"
     inkscape:cx="238.30427"
     inkscape:cy="9.985302"
     inkscape:window-x="65"
     inkscape:window-y="24"
     inkscape:window-maximized="1"
     inkscape:current-layer="Monero-Logo" />
  <metadata
     id="metadata8">
    <rdf:RDF>
      <cc:Work
         rdf:about="">
        <dc:format>image/svg+xml</dc:format>
        <dc:type
           rdf:resource="http://purl.org/dc/dcmitype/StillImage" />
        <dc:title />
      </cc:Work>
    </rdf:RDF>
  </metadata>
  <defs
     id="defs6">
    <inkscape:path-effect
       effect="spiro"
       id="path-effect4442"
       is_visible="true" />
    <inkscape:path-effect
       effect="spiro"
       id="path-effect4349"
       is_visible="true" />
  </defs>
  <g
     transform="scale(1.0133748,0.98680172)"
     style="font-style:normal;font-variant:normal;font-weight:normal;font-stretch:normal;font-size:37.22068787px;line-height:125%;font-family:'Century Gothic';-inkscape-font-specification:'Century Gothic';letter-spacing:0px;word-spacing:0px;fill:#008080;fill-opacity:1;stroke:none;stroke-width:1px;stroke-linecap:butt;stroke-linejoin:miter;stroke-opacity:1"
     id="text3395">
    <path
       d="m 76.657127,20.467948 3.671181,0 0,27.134026 -3.671181,0 0,-27.134026 z"
       style="font-weight:normal;fill:#ffffff;fill-opacity:1"
       id="path4445" />
    <path
       d="m 87.634322,20.467948 4.943372,0 12.031296,22.69953 0,-22.69953 3.56214,0 0,27.134026 -4.94338,0 -12.031292,-22.69953 0,22.69953 -3.562136,0 0,-27.134026 z"
       style="font-weight:normal;fill:#ffffff;fill-opacity:1"
       id="path4447" />
    <path
       d="m 115.47714,20.467948 17.15641,0 0,3.089608 -13.48523,0 0,8.03298 12.92183,0 0,3.089608 -12.92183,0 0,9.832223 13.81237,0 0,3.089607 -17.48355,0 0,-27.134026 z"
       style="font-weight:normal;fill:#ffffff;fill-opacity:1"
       id="path4449" />
    <path
       d="m 150.88041,20.467948 15.59343,0 0,3.089608 -11.92225,0 0,7.996632 10.7591,0 0,3.089608 -10.7591,0 0,12.958178 -3.67118,0 0,-27.134026 z"
       style="font-weight:normal;fill:#ffffff;fill-opacity:1"
       id="path4451" />
    <path
       d="m 183.33947,22.957808 q -3.99832,0 -6.36096,2.980563 -2.34446,2.980563 -2.34446,8.123851 0,5.125115 2.34446,8.105677 2.36264,2.980563 6.36096,2.980563 3.99832,0 6.32461,-2.980563 2.34447,-2.980562 2.34447,-8.105677 0,-5.143288 -2.34447,-8.123851 -2.32629,-2.980563 -6.32461,-2.980563 z m 0,-2.980563 q 5.70669,0 9.12343,3.834749 3.41674,3.816574 3.41674,10.250228 0,6.41548 -3.41674,10.250229 -3.41674,3.816574 -9.12343,3.816574 -5.72486,0 -9.15978,-3.816574 -3.41674,-3.816575 -3.41674,-10.250229 0,-6.433654 3.41674,-10.250228 3.43492,-3.834749 9.15978,-3.834749 z"
       style="font-weight:normal;fill:#ffffff;fill-opacity:1"
       id="path4453" />
    <path
       d="m 214.48999,34.88006 q 1.18132,0.399831 2.28994,1.708371 1.1268,1.30854 2.2536,3.598485 l 3.7257,7.415058 -3.94379,0 -3.47127,-6.960704 q -1.34488,-2.726125 -2.61708,-3.616659 -1.25401,-0.890534 -3.43491,-0.890534 l -3.99832,0 0,11.467897 -3.67118,0 0,-27.134026 8.28742,0 q 4.65258,0 6.94253,1.944635 2.28994,1.944636 2.28994,5.870255 0,2.562557 -1.19949,4.252755 -1.18132,1.690197 -3.45309,2.344467 z m -9.19613,-11.395201 0,9.632307 4.61624,0 q 2.65343,0 3.99831,-1.217669 1.36307,-1.235843 1.36307,-3.616659 0,-2.380815 -1.36307,-3.58031 -1.34488,-1.217669 -3.99831,-1.217669 l -4.61624,0 z"
       style="font-weight:normal;fill:#ffffff;fill-opacity:1"
       id="path4455" />
    <path
       d="m 248.42115,24.084606 -4.97972,13.503404 9.97761,0 -4.99789,-13.503404 z m -2.07186,-3.616658 4.16189,0 10.3411,27.134026 -3.81658,0 -2.47168,-6.960704 -12.23122,0 -2.47168,6.960704 -3.8711,0 10.35927,-27.134026 z"
       style="font-weight:normal;fill:#ffffff;fill-opacity:1"
       id="path4457" />
    <path
       d="m 296.96434,22.557976 0,3.871097 c -1.23585,-1.15103 -2.5565,-2.011274 -3.96197,-2.580731 -1.39335,-0.569457 -2.87758,-0.854186 -4.45267,-0.854186 -3.10173,0 -5.47648,0.951115 -7.12427,2.853344 -1.64779,1.890113 -2.47169,4.628354 -2.47169,8.214722 0,3.574253 0.8239,6.312493 2.47169,8.214722 1.64779,1.890113 4.02254,2.83517 7.12427,2.83517 1.57509,0 3.05932,-0.284729 4.45267,-0.854186 1.40547,-0.569457 2.72612,-1.4297 3.96197,-2.580731 l 0,3.834749 c -1.28431,0.872359 -2.64737,1.526629 -4.08919,1.962809 -1.4297,0.43618 -2.94421,0.65427 -4.54354,0.65427 -4.10736,0 -7.34236,-1.254017 -9.705,-3.762052 -2.36265,-2.520151 -3.54397,-5.955068 -3.54397,-10.304751 0,-2.146392 0.28606,-4.068338 0.85818,-5.765839 0.59051,-1.752082 1.48577,-3.265053 2.68579,-4.538912 0.92348,-0.985044 1.98023,-1.777577 3.17026,-2.377599 1.85457,-0.935085 4.03281,-1.402627 6.53474,-1.402627 1.62356,0 3.15019,0.21809 4.57989,0.65427 1.44181,0.424064 2.79276,1.066218 4.05284,1.926461 z"
       style="font-weight:normal;fill:#ffffff;fill-opacity:1"
       id="path4459"
       inkscape:connector-curvature="0"
       sodipodi:nodetypes="cccscscsccccscsscsscc" />
    <path
       d="m 311.73994,24.084606 -4.97973,13.503404 9.97762,0 -4.99789,-13.503404 z m -2.07186,-3.616658 4.16188,0 10.3411,27.134026 -3.81657,0 -2.47169,-6.960704 -12.23121,0 -2.47169,6.960704 -3.87109,0 10.35927,-27.134026 z"
       style="font-weight:normal;fill:#ffffff;fill-opacity:1"
       id="path4461" />
    <path
       d="m 327.69685,20.467948 3.68936,0 0,16.483966 q 0,4.3618 1.58115,6.288261 1.58115,1.908287 5.12512,1.908287 3.52578,0 5.10694,-1.908287 1.58115,-1.926461 1.58115,-6.288261 l 0,-16.483966 3.68935,0 0,16.93832 q 0,5.306856 -2.63525,8.014807 -2.61708,2.70795 -7.74219,2.70795 -5.14329,0 -7.77855,-2.70795 -2.61708,-2.707951 -2.61708,-8.014807 l 0,-16.93832 z"
       style="font-weight:normal;fill:#ffffff;fill-opacity:1"
       id="path4463" />
    <path
       d="m 371.642,21.358482 0,3.58031 q -2.09003,-0.999579 -3.9438,-1.490281 -1.85376,-0.490703 -3.58031,-0.490703 -2.99873,0 -4.63441,1.163147 -1.6175,1.163146 -1.6175,3.307697 0,1.799243 1.07228,2.726125 1.09045,0.908708 4.10736,1.472107 l 2.21725,0.454354 q 4.10736,0.781489 6.05199,2.762473 1.96281,1.96281 1.96281,5.270508 0,3.943794 -2.65343,5.9793 -2.63525,2.035506 -7.74219,2.035506 -1.92646,0 -4.10736,-0.43618 -2.16273,-0.43618 -4.48902,-1.290365 l 0,-3.780226 q 2.23542,1.254017 4.37997,1.890113 2.14456,0.636095 4.21641,0.636095 3.14413,0 4.8525,-1.235843 1.70837,-1.235843 1.70837,-3.525788 0,-1.999158 -1.23584,-3.125956 -1.21767,-1.126798 -4.01649,-1.690197 l -2.23542,-0.43618 q -4.10736,-0.817837 -5.94295,-2.562557 -1.83559,-1.74472 -1.83559,-4.852502 0,-3.598484 2.5262,-5.670339 2.54439,-2.071855 6.99706,-2.071855 1.90829,0 3.88927,0.345309 1.98098,0.345309 4.05284,1.035928 z"
       style="font-weight:normal;fill:#ffffff;fill-opacity:1"
       id="path4465" />
    <path
       d="m 379.00252,20.467948 17.15643,0 -1e-5,3.089608 -13.48523,0 0,8.03298 12.92183,0 0,3.089608 -12.92183,0 0,9.832223 12.15758,0 -1.73701,3.089607 -14.09176,0 z"
       style="font-weight:normal;fill:#ffffff;fill-opacity:1"
       id="path4467"
       inkscape:connector-curvature="0"
       sodipodi:nodetypes="ccccccccccccc" />
  </g>
  <path
     inkscape:connector-curvature="0"
     d="m 6.7143093,104.65534 c -4.4762062,-19.770227 -2.2381031,-9.885113 0,0 z"
     id="path26-8"
     style="fill:#4c4c4c"
     sodipodi:nodetypes="cc" />
  <path
     style="fill:#ffffff;fill-opacity:1;fill-rule:evenodd;stroke:none;stroke-width:1px;stroke-linecap:butt;stroke-linejoin:miter;stroke-opacity:1"
     d="m 17.787215,56.079441 15.55,0 0,-19.537 15.983,15.984 15.984,-15.984 0,19.537 327.495405,0 4.05194,-6.723677 -323.543745,-0.797023 0,-31.049 -23.987,23.987 -23.987,-23.987 0,31.049 -11.036,0 3.4894,7.5207 z"
     id="path4347"
     inkscape:path-effect="#path-effect4349"
     inkscape:original-d="m 17.787215,56.079441 15.55,0 0,-19.537 15.983,15.984 15.984,-15.984 0,19.537 c 0,0 344.827775,0.385164 327.495405,0 32.45232,-4.155482 18.94386,-5.059998 4.05194,-6.723677 l -323.543745,-0.797023 0,-31.049 -23.987,23.987 -23.987,-23.987 0,31.049 -11.036,0 z"
     inkscape:connector-curvature="0"
     sodipodi:nodetypes="ccccccccccccccc" />
  <text
     xml:space="preserve"
     style="font-style:normal;font-weight:normal;font-size:40px;line-height:125%;font-family:Sans;letter-spacing:0px;word-spacing:0px;fill:#000000;fill-opacity:1;stroke:none;stroke-width:1px;stroke-linecap:butt;stroke-linejoin:miter;stroke-opacity:1"
     x="187.3833"
     y="23.381205"
     id="text4391"
     sodipodi:linespacing="125%"><tspan
       sodipodi:role="line"
       id="tspan4393"
       x="187.3833"
       y="23.381205" /></text>
  <text
     xml:space="preserve"
     style="font-style:normal;font-weight:normal;font-size:40px;line-height:125%;font-family:Sans;letter-spacing:0px;word-spacing:0px;fill:#000000;fill-opacity:1;stroke:none;stroke-width:1px;stroke-linecap:butt;stroke-linejoin:miter;stroke-opacity:1"
     x="195.75"
     y="18.75"
     id="text4424"
     sodipodi:linespacing="125%"><tspan
       sodipodi:role="line"
       id="tspan4426"
       x="195.75"
       y="18.75" /></text>
</svg>
