<?xml version="1.0" encoding="UTF-8" standalone="no"?>
<!-- Created with Inkscape (http://www.inkscape.org/) -->

<svg
   xmlns:dc="http://purl.org/dc/elements/1.1/"
   xmlns:cc="http://creativecommons.org/ns#"
   xmlns:rdf="http://www.w3.org/1999/02/22-rdf-syntax-ns#"
   xmlns:svg="http://www.w3.org/2000/svg"
   xmlns="http://www.w3.org/2000/svg"
   xmlns:sodipodi="http://sodipodi.sourceforge.net/DTD/sodipodi-0.dtd"
   xmlns:inkscape="http://www.inkscape.org/namespaces/inkscape"
   width="150.71996mm"
   height="42.502766mm"
   id="svg10026"
   sodipodi:version="0.32"
   inkscape:version="0.91 r13725"
   sodipodi:docname="puertorico.svg"
   inkscape:output_extension="org.inkscape.output.svg.inkscape"
   version="1.0">
  <defs
     id="defs10028">
    <inkscape:perspective
       sodipodi:type="inkscape:persp3d"
       inkscape:vp_x="0 : 526.18109 : 1"
       inkscape:vp_y="0 : 1000 : 0"
       inkscape:vp_z="744.09448 : 526.18109 : 1"
       inkscape:persp3d-origin="372.04724 : 350.78739 : 1"
       id="perspective10034" />
  </defs>
  <sodipodi:namedview
     id="base"
     pagecolor="#ffffff"
     bordercolor="#d1d1d1"
     borderopacity="0"
     gridtolerance="10000"
     guidetolerance="10"
     objecttolerance="10"
     inkscape:pageopacity="0"
     inkscape:pageshadow="2"
     inkscape:zoom="1.8580591"
     inkscape:cx="218.42202"
     inkscape:cy="73.538543"
     inkscape:document-units="px"
     inkscape:current-layer="g10548"
     showgrid="false"
     inkscape:window-width="1855"
     inkscape:window-height="1056"
     inkscape:window-x="65"
     inkscape:window-y="24"
     inkscape:window-maximized="1"
     units="mm"
     fit-margin-top="0"
     fit-margin-left="0"
     fit-margin-right="0"
     fit-margin-bottom="0" />
  <metadata
     id="metadata10031">
    <rdf:RDF>
      <cc:Work
         rdf:about="">
        <dc:format>image/svg+xml</dc:format>
        <dc:type
           rdf:resource="http://purl.org/dc/dcmitype/StillImage" />
        <dc:title></dc:title>
      </cc:Work>
    </rdf:RDF>
  </metadata>
  <g
     inkscape:label="Layer 1"
     inkscape:groupmode="layer"
     id="layer1"
     transform="translate(-85.010514,-305.63336)">
    <g
       id="g10548">
      <path
         id="path9484"
         d="m 196.43261,305.63561 c -8.3963,0.0469 -9.3454,0.86023 -12.2188,3.96875 -2.9197,3.15873 -3.3752,4.47329 -2.8437,7.875 1.5054,9.6359 1.3604,10.23227 -2.875,13.09375 -2.2254,1.50345 -7.6364,4.26262 -12.0313,6.125 -8.6313,3.65768 -10.153,5.39534 -7.4375,8.5 0.9603,1.09785 2.7857,4.40787 4.0625,7.34374 2.0612,4.73957 2.8724,5.45447 7.25,6.40625 4.3606,0.9481 5.1029,1.59572 6.5313,5.71875 0.8882,2.56397 1.6466,5.50887 1.6562,6.53125 0.01,1.02241 1.0618,2.80856 2.3438,3.96875 3.1254,2.82848 2.9141,5.23488 -0.6563,8.09375 -2.5894,2.07348 -2.9834,3.35422 -3.125,9.96875 -0.1103,5.15669 -0.7947,8.39636 -2.1562,10.18751 -1.1001,1.44721 -2,4.40161 -2,6.5625 0,2.16088 -0.618,5.08549 -1.375,6.5 -0.7571,1.41451 -1.2122,2.68143 -1,2.8125 0.2121,0.13107 1.9832,0.77555 3.9062,1.40625 4.2028,1.37846 3.8213,2.98383 -1.0625,4.5625 -3.3526,1.08373 -3.6412,1.62292 -3.9687,7.3125 -0.3172,5.50798 -0.1219,6.09375 2.0312,6.09375 1.6148,1e-5 2.4063,0.77004 2.4063,2.34375 0,1.70931 0.7696,2.34375 2.9062,2.34375 1.8129,1e-5 2.9063,-0.66226 2.9063,-1.75 0,-0.9615 -0.5153,-1.75 -1.1563,-1.75 -0.641,-10e-6 -1.1562,-0.78851 -1.1562,-1.75 0,-1.85783 4.1012,-2.45709 5.1562,-0.75 0.3441,0.5568 2.7411,1.36507 5.3438,1.78125 2.6027,0.41616 5.0417,1.51876 5.4062,2.46875 0.8965,2.33622 7.4063,2.33873 7.4063,0 0,-0.9615 -0.5195,-1.75 -1.1563,-1.75 -0.6367,-10e-6 -0.0183,-1.33502 1.375,-2.9375 1.3934,-1.60249 3.4899,-2.90625 4.6563,-2.90625 2.4483,0 2.7234,1.2766 0.7187,3.28125 -1.0877,1.08777 -0.8379,1.375 1.1563,1.375 1.4102,1e-5 2.5625,-0.45884 2.5625,-1.03125 0,-1.76936 3.3898,-2.43999 6.4375,-1.28125 1.922,0.73077 2.875,0.69579 2.875,-0.0937 0,-0.656 1.9147,0.6374 4.2187,2.875 3.7616,3.65321 6.0498,4.61588 12.2813,5.1875 1.047,0.096 2.1787,-0.93323 2.5312,-2.28125 0.5827,-2.22834 1.1626,-2.36339 6.5313,-1.625 4.0454,0.55639 5.9062,0.38858 5.9062,-0.5 0,-0.79276 1.1068,-0.99846 2.8438,-0.5625 1.7081,0.42868 4.3989,-0.0971 6.7187,-1.3125 2.1227,-1.1121 4.6156,-2.3934 5.5625,-2.84375 0.947,-0.45036 2.0087,-1.98685 2.3438,-3.40625 0.7705,-3.26388 2.9354,-3.79492 2.9375,-0.71875 8e-4,1.27314 0.908,2.50073 2.0312,2.71875 1.3372,0.25957 2.0508,-0.32556 2.0625,-1.71875 0.0152,-1.80705 0.1928,-1.86164 1.1875,-0.375 1.0193,1.52323 1.3748,1.46287 2.7813,-0.375 1.0296,-1.34549 1.8846,-1.66839 2.375,-0.875 0.954,1.54362 9.8097,5.90625 12,5.90625 0.8868,0 2.4135,-0.78851 3.375,-1.75 2.3419,-2.34189 6.25,-2.24182 6.25,0.15625 0,2.96781 16.86329,1.68072 22.62497,-1.71875 6.48202,-3.82449 13.55966,-3.44036 17.96875,0.96875 1.92301,1.92298 4.26315,3.5 5.1875,3.5 0.92434,1e-5 3.07346,1.09416 4.78125,2.4375 2.91602,2.29383 3.29596,2.33425 6,0.5625 1.58362,-1.03764 2.875,-2.32655 2.875,-2.875 3e-5,-0.54845 1.58394,-1.66215 3.53125,-2.46875 3.04684,-1.26203 4.09027,-1.18243 7.5625,0.6875 2.35361,1.26747 4.03125,3.09287 4.03125,4.34375 0,1.61962 0.60057,1.93817 2.375,1.375 1.29218,-0.41013 4.69865,-0.9002 7.59375,-1.09375 2.89515,-0.19352 6.26276,-1.22107 7.46875,-2.3125 2.02113,-1.82906 2.45342,-1.86511 5.5,-0.15625 l 3.3125,1.875 -4.0625,-0.3125 c -3.0708,-0.23337 -4.12517,0.17019 -4.4375,1.71875 -0.36246,1.79673 0.60016,2.0625 8.25,2.0625 6.29703,1e-5 9.1042,-0.48232 10.15625,-1.75 0.79799,-0.9615 2.18821,-1.75 3.09375,-1.75 0.90555,-10e-6 2.92118,-0.8718 4.5,-1.90625 2.10781,-1.38109 4.22465,-1.6552 7.96875,-1.09375 4.41898,0.6627 5.60506,0.36506 8.75,-2.28125 l 3.625,-3.0625 3.53125,2.53125 c 2.39827,1.70776 4.0132,2.15757 4.96875,1.40625 0.77877,-0.61215 4.02426,-1.46195 7.1875,-1.875 3.16325,-0.41302 6.9449,-1.51126 8.40625,-2.46875 1.46121,-0.9575 3.4646,-1.75 4.46875,-1.75 1.00416,0 2.13102,-0.78851 2.5,-1.75 0.36896,-0.96148 1.33052,-1.75 2.125,-1.75 0.79438,-10e-6 3.10354,-0.83532 5.125,-1.84375 3.17326,-1.58307 3.65625,-2.42334 3.65625,-6.3125 -3e-5,-4.16985 0.24615,-4.48436 3.15625,-4.28125 2.84976,0.1989 3.213,-0.26794 4.03125,-4.90625 0.4966,-2.81399 1.78647,-6.08167 2.84375,-7.25 1.05743,-1.16836 1.60626,-2.95912 1.21875,-3.96875 -0.40953,-1.06722 -0.005,-2.11438 1,-2.5 0.95079,-0.36481 1.75,-1.57394 1.75,-2.71876 -3e-5,-2.57338 3.55848,-4.12274 4.8125,-2.09375 0.737,1.19242 1.19873,1.15262 2.40625,-0.125 1.08534,-1.14846 1.14864,-1.70706 0.1875,-2.0625 -0.73332,-0.27113 -1.05836,-1.57615 -0.71875,-2.875 0.61346,-2.34586 2.29002,-2.4077 7.75,-0.3125 1.39481,0.53526 1.875,-0.0179 1.875,-2.21875 -10e-6,-2.35543 0.43824,-2.80264 2.3125,-2.3125 1.62101,0.42392 2.34375,0.029 2.34375,-1.28125 10e-6,-1.03627 0.51526,-1.875 1.15625,-1.875 0.64098,0 1.1875,0.78851 1.1875,1.75 3e-5,2.2689 5.66521,2.35058 6.53125,0.0937 0.34971,-0.91139 0.0566,-2.76168 -0.65625,-4.09375 -0.95651,-1.78742 -0.97081,-2.40625 0,-2.40625 0.72376,0 1.6022,1.03051 1.9375,2.3125 0.39437,1.50839 1.57754,2.34375 3.375,2.34375 2.93822,0 3.80108,-1.72718 1.34375,-2.71875 -0.80123,-0.32331 -0.23569,-0.6369 1.28125,-0.6875 2.16691,-0.0723 2.63502,-0.60629 2.15625,-2.4375 -0.39626,-1.51492 -0.034,-2.3125 1.03125,-2.3125 2.97421,0 1.7075,-3.44971 -1.5625,-4.25 -1.76275,-0.4314 -3.60088,-1.35996 -4.09375,-2.0625 -0.60733,-0.86551 -1.42395,-0.59265 -2.5,0.8125 -1.47954,1.93192 -1.63574,1.93887 -2.34375,0.0937 -0.42514,-1.10801 -0.11827,-2.42763 0.71875,-2.96875 1.14658,-0.74121 1.19417,-1.18165 0.125,-1.875 -0.87759,-0.56903 -1.01809,-1.52195 -0.375,-2.5625 0.61153,-0.9895 0.52853,-2.57234 -0.21875,-3.96875 -1.02246,-1.91029 -0.82356,-2.64394 1.21875,-3.99999 2.86081,-1.8995 3.46665,-5.47997 0.75,-4.4375 -2.21692,0.85071 -2.17201,-1.4832 0.0625,-4.4375 0.94097,-1.24425 1.6875,-3.01465 1.6875,-3.9375 -2e-5,-2.48437 -8.19787,-0.89194 -10.4375,2.03125 -1.51207,1.97355 -2.45696,2.17979 -6.25,1.3125 -2.45058,-0.56035 -5.35342,-1.83436 -6.46875,-2.84375 -1.11522,-1.00939 -3.99658,-1.98697 -6.40625,-2.15625 -3.77218,-0.26501 -4.4933,-0.76073 -5.0625,-3.59375 -0.54879,-2.7321 -1.10853,-3.17816 -3.3125,-2.625 -1.51192,0.37945 -2.84119,0.1016 -3.09375,-0.65625 -0.33205,-0.99605 -1.0679,-1.00061 -2.9375,0 -2.0688,1.10719 -2.76418,0.96526 -4.03125,-0.84375 -0.87861,-1.25434 -3.75481,-2.55648 -6.75,-3.0625 -2.86824,-0.48458 -6.34669,-1.64307 -7.75,-2.5625 -1.69468,-1.11047 -3.92583,-1.41261 -6.625,-0.90625 -2.23498,0.41927 -6.9664,0.11027 -10.53125,-0.6875 -5.20849,-1.16564 -6.8509,-1.15583 -8.28125,0.0312 -2.25316,1.86993 -13.86272,0.59859 -18.28125,-2 -3.90169,-2.29461 -7.27489,-1.19819 -6.25,2.03125 0.57423,1.80911 0.2184,2.34375 -1.59375,2.34375 -1.28726,0 -2.74117,-0.66751 -3.25,-1.46875 -0.90976,-1.4328 -1.11653,-2.0573 -1.40625,-4.375 -0.26645,-2.13108 -2.09235,-1.20248 -3.4375,1.75 -1.50015,3.29231 -3.88311,3.74455 -6.03125,1.15625 -1.0024,-1.2078 -1.06017,-1.75 -0.15625,-1.75 0.71941,0 1.3125,-0.51526 1.3125,-1.15625 -3e-5,-0.64099 -1.03052,-1.15625 -2.3125,-1.15625 -1.28196,10e-6 -2.34375,0.51526 -2.34375,1.15625 1e-5,1.62615 -7.76232,1.47338 -10.84375,-0.21875 -1.40019,-0.76883 -6.2318,-1.4867 -10.71875,-1.59375 -11.1198,-0.26533 -19.993,-1.39949 -22.75,-2.875 -1.56841,-0.83942 -2.3125,-0.82401 -2.3125,0 -2e-5,0.66356 -1.71165,1.1875 -3.8125,1.1875 -2.10086,0 -4.99852,0.83585 -6.4375,1.84375 -2.37455,1.66323 -3.59205,1.67415 -13.15625,0.0312 -5.79585,-0.99559 -11.07864,-2.14758 -11.75,-2.5625 -0.67137,-0.41492 -1.55931,-0.22499 -1.96875,0.4375 -0.51141,0.82747 -2.62712,0.82137 -6.78122,0 -4.6938,-0.92807 -8.6817,-0.7351 -17.75,0.78125 -10.5954,1.77165 -12.3561,1.76001 -19,0.15625 -7.67,-1.8514 -23.045,-2.20122 -27.25,-0.625 -3.6568,1.37074 -19.7028,-0.962 -24.0625,-3.5 -2.8174,-1.64011 -6.3467,-2.25555 -13.6875,-2.40625 -4.8005,-0.0985 -8.4513,-0.17187 -11.25,-0.15625 z m 338.34372,27.34375 c -0.2345,-0.005 -0.40643,0.0314 -0.5,0.125 -0.31676,0.31684 -0.28632,1.34099 0.0625,2.25 0.63399,1.65199 6.65625,2.38627 6.65625,0.8125 2e-5,-0.95278 -4.57726,-3.15563 -6.21875,-3.1875 z m -422.68752,1.4375 c -1.4375,0.0104 -2.8659,0.44168 -3.1562,1.3125 -0.4923,1.47671 2.8248,2.60446 5.25,1.78125 0.8283,-0.28115 1.3032,-1.09023 1.0625,-1.8125 -0.2889,-0.86664 -1.7187,-1.29163 -3.1563,-1.28125 z m 431.81252,1.6875 c -0.9615,0 -1.75,0.54651 -1.75,1.1875 0,0.64099 0.78851,1.15625 1.75,1.15625 0.96148,-10e-6 1.75,-0.51526 1.75,-1.15625 -2e-5,-0.64099 -0.78851,-1.1875 -1.75,-1.1875 z m 5.3125,2.34375 c -0.60311,-10e-6 -1.41636,0.51526 -1.8125,1.15625 -0.39616,0.641 0.0944,1.1875 1.09375,1.1875 0.99922,0 1.8125,-0.5465 1.8125,-1.1875 0,-0.64099 -0.49051,-1.15625 -1.09375,-1.15625 z m 36.0625,0 c -0.64101,-10e-6 -1.15625,0.51526 -1.15625,1.15625 10e-6,0.641 0.51526,1.1875 1.15625,1.1875 0.64097,0 1.15625,-0.5465 1.15625,-1.1875 2e-5,-0.64099 -0.51526,-1.15625 -1.15625,-1.15625 z m -46.5625,2.34375 c -0.32251,0.0303 -0.62324,0.1545 -0.84375,0.375 -0.37202,0.37202 -0.34834,1.47962 0.0312,2.46875 0.89378,2.32915 4.25,2.35751 4.25,0.0312 0,-1.51193 -2.03994,-3.00609 -3.4375,-2.875 z m 52.53125,0.0625 c -0.7734,0.081 -1.3125,0.84063 -1.3125,2.25 0,1.28199 0.56893,2.34375 1.28125,2.34375 0.85414,0 1.04684,1.40772 0.53125,4.15625 -0.48808,2.60172 -0.26623,4.8075 0.59375,5.84374 1.9913,2.39926 3.40625,2.02386 3.40625,-0.875 0,-2.19452 0.48909,-1.94255 3.75,1.875 l 3.75,4.375 2.09375,-2.5625 c 1.14659,-1.41599 2.0625,-1.99326 2.0625,-1.28125 -10e-6,0.71201 0.78852,1.28125 1.75,1.28125 0.96147,-1e-5 1.75,-1.02831 1.75,-2.28125 -2e-5,-1.6808 1.08423,-2.46665 4.09375,-3.03125 2.97978,-0.55901 4.0625,-1.36536 4.0625,-2.99999 -2e-5,-1.82838 -0.73189,-2.19094 -4.03125,-1.96875 -2.22076,0.14956 -4.39377,-0.11252 -4.84375,-0.5625 -0.44996,-0.44996 0.097,-0.8125 1.21875,-0.8125 1.12176,0 1.82566,-0.63626 1.5625,-1.4375 -0.55175,-1.68028 -6.71875,-2.74288 -6.71875,-1.15625 2e-5,1.89032 -10.74926,0.73994 -12.25,-1.3125 -0.95735,-1.30913 -1.9766,-1.92472 -2.75,-1.84375 z m -11.21875,4.59375 c -0.96148,0 -1.75,0.51526 -1.75,1.15625 10e-6,0.64099 0.73216,1.15625 1.625,1.15625 0.89307,1e-5 1.92802,0.84163 2.3125,1.84375 0.70856,1.84629 3.0625,1.29626 3.0625,-0.71875 -2e-5,-0.60316 -0.78851,-1.125 -1.75,-1.125 -0.9615,1e-5 -1.75,-0.51526 -1.75,-1.15625 0,-0.64099 -0.78851,-1.15625 -1.75,-1.15625 z m -42.53125,3.5 c -0.64102,0 -1.1875,0.78852 -1.1875,1.75 0,0.96148 0.54651,1.74999 1.1875,1.74999 0.64096,0 1.15625,-0.78851 1.15625,-1.74999 10e-6,-0.96148 -0.51526,-1.75 -1.15625,-1.75 z m -6.40625,1.15625 c -0.96146,0 -1.75,0.51525 -1.75,1.15624 3e-5,0.64099 0.78851,1.1875 1.75,1.1875 0.96151,0 1.75,-0.54651 1.75,-1.1875 2e-5,-0.64099 -0.78852,-1.15624 -1.75,-1.15624 z M 86.362255,387.41685 c -0.4853,0.0971 -1.0375,0.55009 -1.2812,1.28125 -0.2404,0.7211 0.1539,1.11538 0.875,0.875 0.7211,-0.24036 1.3125,-0.83175 1.3125,-1.3125 0,-0.68242 -0.4209,-0.94082 -0.9063,-0.84375 z m 493.820325,0.6875 c -7.39236,-0.0316 -12.85846,1.17479 -19.96875,3.875 -5.76893,2.19079 -13.22854,4.21161 -16.59375,4.50001 -5.65238,0.48442 -6.125,0.7732 -6.125,3.53125 -3e-5,5.07243 4.21569,8.375 10.6875,8.375 3.09321,0 5.625,-0.49101 5.625,-1.0625 -10e-6,-1.57732 6.2576,-2.85197 6.75,-1.375 0.94261,2.82802 13.43535,0.35697 14.6875,-2.90625 0.40521,-1.05588 2.30375,-1.65625 5.21875,-1.65625 2.54137,0 4.90574,-0.6641 5.28125,-1.46875 0.54382,-1.16543 0.83121,-1.16544 1.375,0 0.91209,1.95448 3.96084,1.85295 6.25,-0.21875 1.02417,-0.927 4.93748,-2.37989 8.71875,-3.21875 11.60323,-2.57419 9.58476,-5.03772 -5.75,-7.03126 -6.5983,-0.85779 -11.72084,-1.32478 -16.15625,-1.34375 z m -474.85152,8.71876 c -1.3494,-0.005 -3.1079,0.0734 -5.437505,0.15625 l -9.5,0.3125 -1.7813,4.90625 c -1.7342,4.76557 -1.7067,4.94496 1.0625,7.25 1.5607,1.29907 3.4335,2.35367 4.1563,2.375 0.7227,0.0213 1.9591,0.85309 2.7812,1.84375 0.8222,0.99068 2.2451,1.53717 3.1563,1.1875 0.911205,-0.34965 2.342205,-0.65625 3.156205,-0.65625 2.3525,0 8.8125,-6.78027 8.8125,-9.25 0,-1.23467 -0.5212,-3.61102 -1.1562,-5.28125 -0.8476,-2.22918 -1.202,-2.82814 -5.25,-2.84375 z m 195.57025,38.34375 c -0.641,0 -1.1562,0.54651 -1.1562,1.1875 -1e-4,0.64099 0.5152,1.15625 1.1562,1.15625 0.641,1e-5 1.1563,-0.51526 1.1563,-1.15625 0,-0.64099 -0.5153,-1.1875 -1.1563,-1.1875 z m -84.4062,3.5 c -3.1251,1e-5 -4.075,1.70128 -1.5313,2.71875 2.0149,0.80601 3.5472,0.32707 4.0938,-1.3125 0.2768,-0.83022 -0.7564,-1.40625 -2.5625,-1.40625 z m -21.5938,5.84375 c -3.4211,1e-5 -5.3166,1.33957 -3.9062,2.75 0.938,0.93797 3.1152,0.94638 5.5,0.0312 3.0206,-1.15912 2.0853,-2.78125 -1.5938,-2.78125 z m 132.78127,4.65625 c -1.95056,0 -4.625,3.76929 -4.625,6.5 3e-5,1.28418 2.54658,0.26592 4.65625,-1.84375 2.97626,-2.97628 2.96344,-4.65625 -0.0312,-4.65625 z"
         style="fill:#e0e2db;fill-opacity:1;fill-rule:nonzero;stroke-width:19.89999962;stroke-miterlimit:4;stroke-dasharray:none"
         inkscape:connector-curvature="0"
         sodipodi:nodetypes="scccscssccscccsccsscsssscssscsccscssssssssscscccsccccsssssccscscscccccccsccccccccscscccssccccccccccsssscccscssscsscccccscsscssscscccccscsssscscccsscsscsccsssssssssssscccccscscsssccsccsscccsccsccsssssccsccccccscssscccsscccccssssscsscscscccscssssssccscccsssscccssccsscssccsssccsscssscss" />
    </g>
  </g>
</svg>
