<?xml version="1.0" encoding="UTF-8" standalone="no"?>
<svg
   xmlns:dc="http://purl.org/dc/elements/1.1/"
   xmlns:cc="http://creativecommons.org/ns#"
   xmlns:rdf="http://www.w3.org/1999/02/22-rdf-syntax-ns#"
   xmlns:svg="http://www.w3.org/2000/svg"
   xmlns="http://www.w3.org/2000/svg"
   xmlns:sodipodi="http://sodipodi.sourceforge.net/DTD/sodipodi-0.dtd"
   xmlns:inkscape="http://www.inkscape.org/namespaces/inkscape"
   width="200"
   height="200"
   fill="#000000"
   version="1.1"
   x="0px"
   y="0px"
   viewBox="0 0 100 100"
   xml:space="preserve"
   id="svg850"
   sodipodi:docname="warning.svg"
   inkscape:version="0.92.2 (5c3e80d, 2017-08-06)"><metadata
     id="metadata856"><rdf:RDF><cc:Work
         rdf:about=""><dc:format>image/svg+xml</dc:format><dc:type
           rdf:resource="http://purl.org/dc/dcmitype/StillImage" /><dc:title></dc:title></cc:Work></rdf:RDF></metadata><defs
     id="defs854" /><sodipodi:namedview
     pagecolor="#e40011"
     bordercolor="#666666"
     borderopacity="1"
     objecttolerance="10"
     gridtolerance="10"
     guidetolerance="10"
     inkscape:pageopacity="0"
     inkscape:pageshadow="2"
     inkscape:window-width="1920"
     inkscape:window-height="1052"
     id="namedview852"
     showgrid="false"
     inkscape:zoom="3.178445"
     inkscape:cx="122.62279"
     inkscape:cy="66.635439"
     inkscape:window-x="274"
     inkscape:window-y="0"
     inkscape:window-maximized="1"
     inkscape:current-layer="svg850" /><g
     id="g848"
     style="stroke:none;stroke-opacity:1;fill:#f9f9f9;fill-opacity:1"><path
       fill="#000000"
       d="M45.59,15.789l-34.184,61.57C8.562,82.543,9.77,87.5,17.457,87.5h65.082c7.705,0,8.896-4.957,6.051-10.141   L53.699,15.953c-0.707-1.383-1.734-2.911-3.914-2.891C47.467,13.104,46.316,14.406,45.59,15.789z M45.5,35.5h8v28h-8V35.5z    M45.5,69.5h8v8h-8V69.5z"
       id="path846"
       style="stroke:none;stroke-opacity:1;fill:#f9f9f9;fill-opacity:1" /></g><path
     style="opacity:1;fill:#f9f9f9;fill-opacity:1;fill-rule:nonzero;stroke:none;stroke-width:0.15765549;stroke-miterlimit:4;stroke-dasharray:none;stroke-opacity:1"
     d="m 31.300766,174.67594 c -6.365554,-0.82339 -10.153459,-3.79189 -11.033883,-8.64702 -0.431577,-2.37995 0.136438,-5.83835 1.449008,-8.82239 0.314493,-0.71498 16.260077,-29.56977 35.434632,-64.121749 26.644038,-48.011771 35.116053,-63.10195 35.936974,-64.010209 1.586928,-1.755757 3.421898,-2.59505 5.936474,-2.715273 2.609549,-0.124765 3.831479,0.2848 5.513619,1.84804 0.69788,0.648545 1.58593,1.715149 1.97345,2.370233 2.53462,4.28458 70.41037,123.921768 71.16809,125.440228 3.05022,6.11257 2.84004,11.73783 -0.5658,15.14367 -1.32811,1.32811 -3.92795,2.63299 -6.45705,3.24086 -1.58715,0.38147 -4.98846,0.40276 -69.74416,0.43664 -38.882618,0.0203 -68.7342,-0.0496 -69.611354,-0.16303 z m 75.729264,-27.67093 v -8.12291 l -8.064513,0.0584 -8.064516,0.0584 -0.05856,7.78516 c -0.03221,4.28184 -0.01032,7.91087 0.04864,8.06452 0.08327,0.217 1.896235,0.27935 8.123079,0.27935 h 8.01588 z m 0,-48.05339 V 70.806463 l -8.064513,0.05839 -8.064516,0.05839 -0.05723,27.808676 c -0.03148,15.294781 -0.0096,27.933821 0.04864,28.086771 0.08199,0.21536 1.913811,0.27808 8.121745,0.27808 h 8.015874 z"
     id="path858"
     inkscape:connector-curvature="0"
     transform="scale(0.5)" /><path
     style="opacity:1;fill:#f9f9f9;fill-opacity:1;fill-rule:nonzero;stroke:none;stroke-width:0.15765549;stroke-miterlimit:4;stroke-dasharray:none;stroke-opacity:1"
     d="m 30.055617,174.45856 c 0,-0.14686 -0.229644,-0.20624 -0.556173,-0.14382 -0.305896,0.0585 -0.556174,0.008 -0.556174,-0.11125 0,-0.11966 -0.200222,-0.16521 -0.444939,-0.10121 -0.244716,0.064 -0.444938,0.0256 -0.444938,-0.0853 0,-0.1109 -0.127964,-0.20164 -0.284363,-0.20164 -0.1564,0 -0.982318,-0.33575 -1.835373,-0.74612 -2.136829,-1.02794 -3.665321,-2.46584 -4.584512,-4.31279 -0.411663,-0.82717 -0.809011,-1.53246 -0.882996,-1.56732 -0.07399,-0.0349 -0.08734,-0.31016 -0.02968,-0.61179 0.05766,-0.30162 0.01808,-0.54841 -0.08795,-0.54841 -0.106033,0 -0.192787,-0.85094 -0.192787,-1.89099 0,-1.04004 0.07508,-1.89099 0.166852,-1.89099 0.09177,0 0.166852,-0.24136 0.166852,-0.53635 0,-0.29499 0.195219,-1.1636 0.433821,-1.93023 0.238601,-0.76662 0.388145,-1.46777 0.332318,-1.5581 -0.05583,-0.0903 -0.0099,-0.19781 0.101973,-0.23885 0.111912,-0.041 0.237675,-0.27056 0.279473,-0.51003 0.0418,-0.23948 0.209902,-0.58986 0.373564,-0.77864 0.163663,-0.18878 1.551911,-2.6458 3.084996,-5.46003 1.533085,-2.81424 6.746788,-12.26897 11.586006,-21.01052 4.839219,-8.74154 8.798578,-16.02463 8.798578,-16.18465 0,-0.16001 0.08139,-0.29093 0.18087,-0.29093 0.253268,0 1.091384,-1.69401 0.921947,-1.86344 -0.07633,-0.0763 -0.02402,-0.13879 0.116245,-0.13879 0.305128,0 1.194941,-1.6646 0.996102,-1.86344 -0.07633,-0.0763 -0.02402,-0.13878 0.116245,-0.13878 0.305128,0 1.194941,-1.6646 0.996102,-1.86344 -0.07633,-0.0763 -0.02402,-0.13878 0.116245,-0.13878 0.305128,0 1.194941,-1.66461 0.996102,-1.86345 -0.07633,-0.0763 -0.02402,-0.13878 0.116245,-0.13878 0.305128,0 1.194941,-1.6646 0.996102,-1.86344 -0.07633,-0.0763 -0.02402,-0.13878 0.116245,-0.13878 0.305128,0 1.194941,-1.66461 0.996102,-1.86345 -0.07633,-0.0763 -0.02402,-0.13878 0.116245,-0.13878 0.305128,0 1.194941,-1.6646 0.996102,-1.863442 -0.07633,-0.07633 -0.02402,-0.138781 0.116245,-0.138781 0.305128,0 1.194941,-1.664605 0.996102,-1.863444 -0.07633,-0.07633 -0.04042,-0.138781 0.0798,-0.138781 0.288919,0 1.223228,-1.672763 1.037851,-1.85814 -0.07925,-0.07925 -0.04572,-0.144085 0.0745,-0.144085 0.288919,0 1.223228,-1.672763 1.037851,-1.85814 -0.07925,-0.07925 -0.04572,-0.144084 0.0745,-0.144084 0.288919,0 1.223228,-1.672763 1.037851,-1.858141 -0.07925,-0.07925 -0.04572,-0.144084 0.0745,-0.144084 0.288919,0 1.223228,-1.672763 1.037851,-1.85814 -0.07925,-0.07925 -0.04572,-0.144085 0.0745,-0.144085 0.288919,0 1.223228,-1.672763 1.037851,-1.85814 -0.07925,-0.07925 -0.04572,-0.144084 0.0745,-0.144084 0.288919,0 1.223228,-1.672764 1.037851,-1.858141 -0.07925,-0.07925 -0.04572,-0.144084 0.0745,-0.144084 0.288919,0 1.223228,-1.672763 1.037851,-1.85814 -0.07925,-0.07925 -0.04572,-0.144085 0.0745,-0.144085 0.288919,0 1.223228,-1.672763 1.037851,-1.85814 -0.07925,-0.07925 -0.04572,-0.144085 0.0745,-0.144085 0.288919,0 1.223228,-1.672763 1.037851,-1.85814 -0.07925,-0.07925 -0.04572,-0.144084 0.0745,-0.144084 0.288919,0 1.223229,-1.672763 1.037851,-1.85814 -0.07925,-0.07925 -0.04572,-0.144085 0.0745,-0.144085 0.288918,0 1.223228,-1.672763 1.03785,-1.85814 -0.07925,-0.07925 -0.04572,-0.144085 0.0745,-0.144085 0.288918,0 1.223228,-1.672763 1.037851,-1.85814 -0.07925,-0.07925 -0.04572,-0.144084 0.0745,-0.144084 0.288918,0 1.223228,-1.672763 1.037851,-1.85814 -0.07925,-0.07925 -0.04572,-0.144085 0.0745,-0.144085 0.288918,0 1.223228,-1.672763 1.037851,-1.85814 -0.07925,-0.07925 -0.04572,-0.144085 0.0745,-0.144085 0.288919,0 1.223228,-1.672763 1.037851,-1.85814 -0.07925,-0.07925 -0.04572,-0.144084 0.0745,-0.144084 0.288919,0 1.223228,-1.672763 1.037851,-1.858141 -0.07925,-0.07925 -0.04572,-0.144084 0.0745,-0.144084 0.262603,0 1.297533,-1.778276 1.037773,-1.783161 -0.0996,-0.0018 -0.06004,-0.08033 0.0879,-0.174356 0.147942,-0.09402 3.28723,-5.57358 6.9762,-12.176795 8.642845,-15.470599 11.898025,-21.163006 12.653924,-22.128202 1.594216,-2.035627 3.597099,-2.902644 6.725019,-2.911153 1.620818,-0.0044 2.104718,0.08327 3.020358,0.547259 1.58814,0.804771 3.29374,2.80249 5.03873,5.901714 0.8444,1.499709 1.69534,2.886818 1.89099,3.082465 0.19565,0.195646 0.33069,0.387899 0.3001,0.427228 -0.14628,0.188082 -0.0133,0.47799 0.44494,0.969833 0.27531,0.295506 0.47553,0.564661 0.44494,0.598122 -0.14797,0.161857 -0.015,0.465482 0.39799,0.908768 0.24948,0.267788 0.39399,0.486887 0.32113,0.486887 -0.0729,0 0.0449,0.300334 0.26176,0.667409 0.21684,0.367074 0.45609,0.667408 0.53168,0.667408 0.0756,0 0.14055,0.125139 0.14436,0.278087 0.009,0.358933 2.46617,4.671419 2.76802,4.857974 0.12612,0.07794 0.22075,0.205606 0.2103,0.283695 -0.0512,0.382649 0.0115,0.535799 0.38279,0.93429 0.3995,0.42881 0.48809,0.600423 0.48809,0.945495 0,0.09929 0.20412,0.39962 0.4536,0.667409 0.24949,0.267789 0.39399,0.486888 0.32113,0.486888 -0.0729,0 0.0449,0.300333 0.26177,0.667408 0.21684,0.367074 0.45609,0.667408 0.53167,0.667408 0.0756,0 0.14035,0.125139 0.14392,0.278087 0.008,0.334349 2.49521,4.669739 2.79046,4.863582 0.11402,0.07486 0.1895,0.174972 0.16774,0.222469 -0.0822,0.179326 0.52605,1.309944 0.70469,1.309944 0.10271,0 0.1749,0.07508 0.16041,0.166852 -0.0625,0.39562 0.054,0.66877 0.47995,1.126016 0.24948,0.267789 0.39399,0.486888 0.32113,0.486888 -0.0729,0 0.0449,0.300333 0.26176,0.667408 0.21684,0.367074 0.45609,0.667408 0.53168,0.667408 0.0756,0 0.14034,0.125139 0.14391,0.278087 0.008,0.334349 2.49522,4.66974 2.79046,4.863582 0.11402,0.07486 0.19876,0.2 0.18831,0.278086 -0.0512,0.38265 0.0115,0.5358 0.38279,0.934292 0.3995,0.42881 0.48809,0.600422 0.48809,0.945495 0,0.09929 0.20412,0.399619 0.45361,0.667408 0.24948,0.267789 0.39398,0.486888 0.32112,0.486888 -0.0729,0 0.0449,0.300333 0.26177,0.667408 0.21684,0.367074 0.45609,0.667408 0.53167,0.667408 0.0756,0 0.14035,0.125139 0.14392,0.278087 0.008,0.334349 2.49521,4.66974 2.79046,4.863582 0.11402,0.07486 0.19876,0.2 0.18831,0.278086 -0.0512,0.38265 0.0115,0.5358 0.38279,0.934292 0.39949,0.42881 0.48808,0.600423 0.48808,0.945495 0,0.09929 0.20413,0.399619 0.45361,0.667408 0.24948,0.267789 0.39399,0.486888 0.32113,0.486888 -0.0729,0 0.0449,0.300333 0.26176,0.667408 0.21684,0.367074 0.45609,0.667408 0.53168,0.667408 0.0756,0 0.14164,0.125139 0.14679,0.278087 0.0119,0.354716 2.48016,4.681568 2.77424,4.863319 0.12136,0.075 0.2121,0.200263 0.20165,0.278349 -0.0512,0.38265 0.0115,0.5358 0.38279,0.934292 0.3995,0.42881 0.48809,0.600423 0.48809,0.945495 0,0.09929 0.20412,0.399619 0.45361,0.667408 0.24948,0.267789 0.39398,0.486888 0.32112,0.486888 -0.0729,0 0.0449,0.300333 0.26177,0.667408 0.21684,0.367075 0.45609,0.667408 0.53167,0.667408 0.0756,0 0.14055,0.125139 0.14437,0.278087 0.009,0.358934 2.46617,4.671419 2.76802,4.857973 0.12611,0.07794 0.22075,0.205609 0.2103,0.283696 -0.0512,0.382649 0.0115,0.535799 0.38279,0.934291 0.39949,0.42881 0.48808,0.600423 0.48808,0.945495 0,0.09929 0.20413,0.39962 0.45361,0.667408 0.24948,0.267789 0.39399,0.486888 0.32113,0.486888 -0.0729,0 0.0449,0.300334 0.26177,0.667408 0.21683,0.367075 0.45608,0.667408 0.53167,0.667408 0.0756,0 0.13742,0.126574 0.13742,0.281277 0,0.344626 2.47849,4.670806 2.78455,4.860396 0.12084,0.0749 0.21117,0.2 0.20071,0.27808 -0.0517,0.38663 0.0157,0.54029 0.43461,0.98991 0.24948,0.26779 0.39708,0.48689 0.32799,0.48689 -0.0691,0 0.0297,0.30033 0.21951,0.66741 0.18983,0.36707 0.45936,0.66741 0.59897,0.66741 0.13961,0 0.19109,0.0627 0.11439,0.13943 -0.16921,0.16922 0.44841,1.41785 0.70133,1.41785 0.0988,0 0.18166,0.12514 0.18408,0.27809 0.007,0.44929 2.55141,4.83871 2.80473,4.83871 0.12721,0 0.16854,0.0627 0.0918,0.13944 -0.1977,0.1977 0.46966,1.41784 0.77549,1.41784 0.13961,0 0.19108,0.0628 0.11439,0.13944 -0.1977,0.1977 0.46965,1.41785 0.77549,1.41785 0.1396,0 0.19108,0.0627 0.11439,0.13944 -0.16922,0.16922 0.44841,1.41785 0.70133,1.41785 0.0988,0 0.17967,0.13143 0.17967,0.29208 0,0.45443 3.43315,6.382 3.69634,6.382 0.12868,0 0.17121,0.0627 0.0945,0.13944 -0.16922,0.16921 0.4484,1.41784 0.70132,1.41784 0.0988,0 0.17979,0.12514 0.17992,0.27809 1.3e-4,0.15295 3.52087,6.50765 7.82385,14.12157 4.30299,7.61391 8.04363,14.29634 8.31254,14.84983 0.26891,0.55349 0.575,1.00635 0.68019,1.00635 0.1052,0 0.13713,0.0876 0.071,0.1947 -0.12178,0.19704 0.4991,2.26985 0.74133,2.47494 0.16855,0.1427 0.23086,0.92158 0.2937,3.67074 0.0612,2.67824 -0.32294,4.14092 -1.54817,5.89467 -1.03546,1.48213 -2.59383,2.69093 -4.50959,3.49801 -0.79533,0.33505 -1.47755,0.68073 -1.51605,0.76817 -0.0385,0.0874 -0.20356,0.10773 -0.36681,0.0451 -0.16326,-0.0626 -0.36022,-0.0113 -0.43769,0.11402 -0.0775,0.12535 -0.2891,0.17103 -0.47028,0.10151 -0.18118,-0.0695 -0.45744,-0.0202 -0.61392,0.10971 -0.41701,0.34609 -140.088028,0.35799 -140.088028,0.0119 z m 76.921613,-27.50639 -0.0584,-7.95328 -8.064517,-0.0584 -8.064517,-0.0584 v 8.01168 8.01167 h 8.122944 8.12294 z m 0.0528,-47.997776 V 70.812013 H 98.9099 90.789766 v 28.012608 c 0,22.201929 0.05769,28.035879 0.278087,28.124819 0.152948,0.0617 3.807008,0.12011 8.120134,0.12977 l 7.842043,0.0176 z"
     id="path860"
     inkscape:connector-curvature="0"
     transform="scale(0.5)" /><path
     style="opacity:1;fill:#f9f9f9;fill-opacity:1;fill-rule:nonzero;stroke:none;stroke-width:0.15765549;stroke-miterlimit:4;stroke-dasharray:none;stroke-opacity:1"
     d="m 29.933455,174.46508 c -0.08279,-0.13396 -0.339446,-0.19415 -0.570354,-0.13377 -0.230907,0.0604 -0.419831,0.007 -0.419831,-0.11779 0,-0.12518 -0.200222,-0.17524 -0.444939,-0.11124 -0.244716,0.064 -0.444938,0.0256 -0.444938,-0.0853 0,-0.1109 -0.127964,-0.20164 -0.284363,-0.20164 -0.65445,0 -3.46952,-1.56729 -4.522646,-2.51799 -1.060251,-0.95713 -2.94448,-3.96892 -2.794867,-4.46737 0.03302,-0.11003 -0.0029,-0.3603 -0.07975,-0.55617 -0.16542,-0.42142 -0.188593,-3.7681 -0.02942,-4.24935 0.0992,-0.29992 0.884183,-3.50991 0.924864,-3.78198 0.0091,-0.0612 0.141746,-0.33648 0.294663,-0.61179 0.152917,-0.27531 0.199425,-0.50209 0.103351,-0.50396 -0.09607,-0.002 -0.06142,-0.077 0.07702,-0.16685 0.325349,-0.21128 10.167289,-18.07334 10.167289,-18.45254 0,-0.15791 0.08139,-0.28711 0.18087,-0.28711 0.09948,0 0.385161,-0.40044 0.634851,-0.88987 0.24969,-0.48944 0.382758,-0.88988 0.295705,-0.88988 -0.08705,0 -0.0029,-0.12514 0.186898,-0.27809 0.403342,-0.32495 11.151542,-19.72147 11.15657,-20.13348 0.0018,-0.15295 0.06828,-0.27809 0.147579,-0.27809 0.175384,0 0.990327,-1.60126 0.934087,-1.83537 -0.02205,-0.0918 0.0416,-0.16685 0.141422,-0.16685 0.262998,0 1.171708,-1.6872 1.000772,-1.85814 -0.07925,-0.0792 -0.04572,-0.14409 0.0745,-0.14409 0.288918,0 1.223228,-1.67276 1.037851,-1.85814 -0.07925,-0.0792 -0.04572,-0.14408 0.0745,-0.14408 0.288918,0 1.223228,-1.67276 1.037851,-1.85814 -0.07925,-0.0793 -0.04572,-0.14408 0.0745,-0.14408 0.288919,0 1.223228,-1.67277 1.037851,-1.85814 -0.07925,-0.0792 -0.04572,-0.14409 0.0745,-0.14409 0.288919,0 1.223228,-1.67276 1.037851,-1.85814 -0.07925,-0.0793 -0.04572,-0.14408 0.0745,-0.14408 0.288919,0 1.223228,-1.67277 1.037851,-1.85814 -0.07925,-0.0793 -0.04572,-0.14409 0.0745,-0.14409 0.288919,0 1.223228,-1.67276 1.037851,-1.858139 -0.07925,-0.07925 -0.04572,-0.144084 0.0745,-0.144084 0.262603,0 1.297533,-1.778276 1.037773,-1.783162 -0.0996,-0.0018 -0.07569,-0.07696 0.05313,-0.166852 0.35719,-0.249265 1.273689,-1.831495 1.06313,-1.835372 -0.101749,-0.0018 -0.0796,-0.07696 0.04922,-0.166852 0.35719,-0.249266 1.273689,-1.831495 1.06313,-1.835373 -0.101748,-0.0018 -0.0796,-0.07696 0.04922,-0.166852 0.35719,-0.249266 1.273689,-1.831495 1.06313,-1.835373 -0.101748,-0.0018 -0.0796,-0.07696 0.04922,-0.166852 0.35719,-0.249266 1.273689,-1.831495 1.06313,-1.835372 -0.101748,-0.0018 -0.0796,-0.07696 0.04922,-0.166852 0.35719,-0.249266 1.273689,-1.831495 1.06313,-1.835373 -0.101748,-0.0018 -0.0796,-0.07696 0.04922,-0.166852 0.35719,-0.249266 1.273689,-1.831495 1.06313,-1.835373 -0.101748,-0.0018 -0.0796,-0.07696 0.04922,-0.166852 0.35719,-0.249266 1.273689,-1.831495 1.06313,-1.835372 -0.101748,-0.0018 -0.0796,-0.07696 0.04922,-0.166852 0.357191,-0.249266 1.273689,-1.831495 1.06313,-1.835373 -0.101748,-0.0018 -0.0796,-0.07696 0.04922,-0.166852 0.357191,-0.249266 1.273689,-1.831495 1.063131,-1.835373 -0.101749,-0.0018 -0.0796,-0.07696 0.04922,-0.166852 0.357191,-0.249266 1.273689,-1.831495 1.063131,-1.835373 -0.101749,-0.0018 -0.0796,-0.07696 0.04922,-0.166852 0.357191,-0.249265 1.273689,-1.831495 1.063131,-1.835372 -0.101749,-0.0018 -0.0796,-0.07696 0.04922,-0.166852 0.35719,-0.249266 1.273688,-1.831495 1.06313,-1.835373 -0.101749,-0.0018 -0.0796,-0.07696 0.04922,-0.166852 0.35719,-0.249266 1.273688,-1.831495 1.06313,-1.835373 -0.101749,-0.0018 -0.0796,-0.07696 0.04922,-0.166852 0.35719,-0.249266 1.273688,-1.831495 1.06313,-1.835372 -0.101749,-0.0018 -0.0796,-0.07696 0.04922,-0.166852 0.35719,-0.249266 1.273688,-1.831495 1.06313,-1.835373 -0.101749,-0.0018 -0.0796,-0.07696 0.04922,-0.166852 0.35719,-0.249266 1.273688,-1.831495 1.06313,-1.835373 -0.101749,-0.0018 -0.0796,-0.07696 0.04922,-0.166852 0.334511,-0.233441 1.280616,-1.831966 1.084267,-1.831966 -0.09012,0 -0.0069,-0.175195 0.184943,-0.389322 0.191842,-0.214127 3.57307,-6.145717 7.51384,-13.181312 12.509459,-22.333568 12.231884,-21.89409 14.542205,-23.024424 1.351179,-0.661071 3.83472,-1.006233 5.428395,-0.754438 0.57503,0.09085 1.24573,0.197397 1.49045,0.236763 0.24472,0.03937 1.19577,0.82241 2.11346,1.740096 1.28572,1.285724 2.04659,2.332036 3.31642,4.560623 0.90635,1.590657 1.73227,2.925473 1.83538,2.966259 0.1031,0.04079 0.18747,0.247159 0.18747,0.458607 0,0.211448 0.20022,0.599364 0.44493,0.862036 0.24472,0.262673 0.44494,0.613062 0.44494,0.778643 0,0.165582 0.20413,0.520157 0.45361,0.787946 0.24948,0.267788 0.39399,0.486887 0.32113,0.486887 -0.0729,0 0.0449,0.300334 0.26176,0.667409 0.21684,0.367074 0.47278,0.667408 0.56876,0.667408 0.096,0 0.1745,0.12581 0.1745,0.279578 0,0.291702 2.3869,4.642937 2.65349,4.837218 0.084,0.06118 0.28424,0.436597 0.44508,0.834261 0.16085,0.397664 0.36031,0.723025 0.44324,0.723025 0.0829,0 0.27749,0.35039 0.43235,0.778643 0.15486,0.428254 0.37519,0.778643 0.48963,0.778643 0.11444,0 0.1906,0.07508 0.16924,0.166852 -0.0622,0.267442 0.53701,1.390434 0.74195,1.390434 0.10271,0 0.18675,0.118763 0.18675,0.26392 0,0.145157 0.57564,1.255962 1.2792,2.468456 0.70356,1.212496 1.46621,2.570371 1.69477,3.017504 0.22857,0.447132 0.48453,0.863023 0.56881,0.924202 0.0843,0.06118 0.28483,0.436597 0.44568,0.834261 0.16084,0.397664 0.38041,0.723025 0.48792,0.723025 0.10751,0 0.17421,0.07508 0.14822,0.166852 -0.0493,0.17398 0.46012,1.197001 0.69236,1.390434 0.0734,0.06118 0.48393,0.802356 0.91219,1.647059 0.42825,0.844703 0.87875,1.649166 1.00111,1.787695 0.32047,0.362821 0.92498,1.440025 1.34968,2.405068 0.20193,0.458843 0.43628,0.83426 0.52077,0.83426 0.0845,0 0.28033,0.35039 0.43519,0.778643 0.15486,0.428254 0.37519,0.778643 0.48963,0.778643 0.11444,0 0.1906,0.07508 0.16924,0.166852 -0.0622,0.267442 0.53701,1.390434 0.74195,1.390434 0.10271,0 0.18675,0.118763 0.18675,0.26392 0,0.145157 0.57564,1.255962 1.2792,2.468456 0.70356,1.212496 1.46621,2.570372 1.69477,3.017504 0.22857,0.447132 0.48453,0.863023 0.56881,0.924202 0.0843,0.06118 0.28483,0.436597 0.44568,0.834261 0.16084,0.397664 0.38041,0.723025 0.48792,0.723025 0.10752,0 0.17801,0.07508 0.15666,0.166852 -0.0622,0.267442 0.537,1.390434 0.74194,1.390434 0.10272,0 0.18676,0.125811 0.18676,0.279577 0,0.291705 2.3869,4.642937 2.65349,4.83722 0.084,0.06118 0.28424,0.436596 0.44508,0.83426 0.16085,0.397664 0.36031,0.723025 0.44324,0.723025 0.0829,0 0.27749,0.35039 0.43235,0.778643 0.15486,0.428254 0.37519,0.778643 0.48963,0.778643 0.11444,0 0.1906,0.07508 0.16924,0.166852 -0.0622,0.267442 0.53701,1.390434 0.74195,1.390434 0.10271,0 0.18675,0.125811 0.18675,0.279578 0,0.291704 2.38691,4.642936 2.6535,4.837219 0.0839,0.06118 0.28423,0.436596 0.44508,0.83426 0.16084,0.397664 0.38041,0.723026 0.48793,0.723026 0.10751,0 0.19547,0.181345 0.19547,0.40299 0,0.221644 0.20413,0.622089 0.45361,0.889877 0.24948,0.267789 0.39399,0.486888 0.32113,0.486888 -0.0729,0 0.0449,0.300334 0.26177,0.667408 0.21683,0.367075 0.47277,0.667408 0.56875,0.667408 0.096,0 0.1745,0.125811 0.1745,0.279578 0,0.362655 2.43695,4.702915 2.69516,4.800135 0.10832,0.0408 0.19694,0.24716 0.19694,0.45861 0,0.21145 0.18081,0.57852 0.40179,0.81572 0.3995,0.42881 0.48809,0.60043 0.48809,0.9455 0,0.0993 0.20412,0.39962 0.45361,0.66741 0.24948,0.26779 0.39399,0.48688 0.32112,0.48688 -0.0729,0 0.0449,0.30034 0.26177,0.66741 0.21684,0.36708 0.47277,0.66741 0.56875,0.66741 0.096,0 0.17451,0.14663 0.17451,0.32583 0,0.36801 2.39232,4.60582 2.71863,4.81584 0.11631,0.0749 0.20292,0.2 0.19247,0.27809 -0.0512,0.38265 0.0115,0.5358 0.38279,0.93429 0.39949,0.42881 0.48809,0.60042 0.48809,0.94549 0,0.0993 0.20412,0.39962 0.4536,0.66741 0.24948,0.26779 0.39399,0.48689 0.32113,0.48689 -0.0729,0 0.0449,0.30033 0.26177,0.66741 0.21683,0.36707 0.45608,0.66741 0.53167,0.66741 0.0756,0 0.13906,0.12513 0.14106,0.27808 0.005,0.36378 3.38522,6.23563 3.71227,6.44821 0.13831,0.0899 0.17381,0.16498 0.0789,0.16685 -0.22418,0.004 0.4633,1.33822 0.68976,1.33822 0.0946,0 0.29877,0.35039 0.45363,0.77865 0.15486,0.42825 0.37519,0.77864 0.48963,0.77864 0.11444,0 0.18304,0.0844 0.15245,0.18749 -0.0889,0.29974 3.41861,6.48659 3.67745,6.48659 0.12887,0 0.17155,0.0627 0.0949,0.13944 -0.16921,0.16922 0.44841,1.41785 0.70133,1.41785 0.0988,0 0.17968,0.12791 0.17968,0.28424 0,0.15633 2.21131,4.19875 4.91404,8.98314 2.70272,4.78439 5.18526,9.23657 5.51675,9.89373 0.33149,0.65716 0.71473,1.26839 0.85163,1.35828 0.1369,0.0899 0.17922,0.16498 0.094,0.16686 -0.17363,0.004 0.45674,2.27671 0.67965,2.45057 0.0784,0.0612 0.14538,0.2614 0.14877,0.44494 0.003,0.18353 0.0866,1.18464 0.18504,2.22469 0.20453,2.16206 -0.1626,4.42436 -0.97706,6.02084 -0.67223,1.31768 -2.52413,3.09276 -4.05231,3.88422 -0.70327,0.36423 -1.27891,0.74323 -1.2792,0.84222 -2.3e-4,0.099 -0.0986,0.11939 -0.2184,0.0453 -0.11983,-0.0741 -0.4452,-0.01 -0.72303,0.14343 -0.27783,0.15295 -0.60526,0.2925 -0.72762,0.31011 -0.12236,0.0176 -0.27253,0.0556 -0.33371,0.0844 -0.0612,0.0288 -0.36151,0.1093 -0.66741,0.17882 -0.30589,0.0695 -32.0598,0.16205 -70.56424,0.20563 -50.549949,0.0572 -70.049904,0.0115 -70.15859,-0.16431 z m 77.043775,-27.51291 -0.0584,-7.95328 -8.064517,-0.0584 -8.064517,-0.0584 v 8.01168 8.01167 h 8.122944 8.12294 z m 0.0528,-47.997776 V 70.812013 H 98.9099 90.789766 l 0.003,27.53059 c 0.0018,15.141827 0.062,27.750477 0.134067,28.019227 0.07206,0.26876 0.295949,0.53245 0.497519,0.58599 0.201569,0.0535 3.795299,0.10895 7.986067,0.12315 l 7.619581,0.0258 z"
     id="path862"
     inkscape:connector-curvature="0"
     transform="scale(0.5)" /><path
     style="opacity:1;fill:#f9f9f9;fill-opacity:1;fill-rule:nonzero;stroke:none;stroke-width:0.15765549;stroke-miterlimit:4;stroke-dasharray:none;stroke-opacity:1"
     d="m 29.933513,174.46517 c -0.08282,-0.134 -0.339405,-0.19426 -0.57019,-0.13391 -0.230785,0.0603 -0.479891,0.0122 -0.553569,-0.10702 -0.07368,-0.11922 -0.273999,-0.16301 -0.44516,-0.0973 -0.171161,0.0657 -0.311201,0.0224 -0.311201,-0.0961 0,-0.11852 -0.138575,-0.21549 -0.307944,-0.21549 -0.784314,0 -3.912678,-1.83812 -4.869729,-2.86128 -0.972201,-1.03936 -2.53543,-3.70401 -2.41941,-4.12408 0.03039,-0.11003 -0.0077,-0.3603 -0.08454,-0.55617 -0.16542,-0.42142 -0.188593,-3.7681 -0.02942,-4.24935 0.0607,-0.18354 0.276481,-1.08454 0.479507,-2.00222 0.354863,-1.60401 0.615566,-2.39967 1.02051,-3.11457 2.927759,-5.16882 6.730125,-12.16804 6.730125,-12.38852 0,-0.16073 0.08139,-0.29224 0.18087,-0.29224 0.253267,0 1.091383,-1.69401 0.921945,-1.86345 -0.07633,-0.0763 -0.02402,-0.13878 0.116245,-0.13878 0.280027,0 1.268582,-1.77765 0.991616,-1.78316 -0.09426,-0.002 -0.06598,-0.077 0.06284,-0.16685 0.393248,-0.27443 1.215372,-1.75428 1.060576,-1.90907 -0.07995,-0.0799 -0.047,-0.14537 0.07322,-0.14537 0.262603,0 1.297533,-1.77827 1.037774,-1.78316 -0.0996,-0.002 -0.06162,-0.0794 0.08439,-0.17219 0.277374,-0.17634 8.080778,-14.13139 10.124791,-18.10645 0.647978,-1.26014 1.249344,-2.3459 1.336365,-2.4128 0.08702,-0.0669 0.31788,-0.50375 0.513016,-0.97077 0.195137,-0.46703 0.553284,-1.0622 0.795883,-1.3226 0.242598,-0.2604 0.502683,-0.72572 0.577966,-1.03405 0.07528,-0.30833 0.198861,-0.61066 0.274616,-0.67184 0.264583,-0.21367 0.906103,-1.32119 0.906103,-1.5643 0,-0.13483 0.250278,-0.57327 0.556173,-0.97432 0.305896,-0.40105 0.556174,-0.85155 0.556174,-1.00111 0,-0.14956 0.250278,-0.60006 0.556173,-1.00111 0.305896,-0.40105 0.556174,-0.85155 0.556174,-1.00112 0,-0.14956 0.250278,-0.60006 0.556173,-1.00111 0.305896,-0.40105 0.556174,-0.85155 0.556174,-1.00111 0,-0.14956 0.250278,-0.60006 0.556173,-1.00111 0.305896,-0.40105 0.556174,-0.88267 0.556174,-1.07027 0,-0.18759 0.139397,-0.45677 0.309769,-0.59816 0.170373,-0.1414 0.439539,-0.57913 0.598146,-0.97274 0.15861,-0.39361 0.519769,-1.025433 0.802579,-1.404056 0.28281,-0.378625 0.5142,-0.848244 0.5142,-1.043599 0,-0.195357 0.111455,-0.424078 0.24768,-0.508267 0.136222,-0.08419 0.446836,-0.565629 0.690251,-1.06986 0.243415,-0.504231 0.732234,-1.417342 1.08626,-2.029132 0.354027,-0.611791 0.854583,-1.512792 1.112347,-2.002225 0.257765,-0.489433 0.758321,-1.390434 1.112348,-2.002225 0.354026,-0.611791 0.854582,-1.512792 1.112347,-2.002225 0.257764,-0.489432 0.75832,-1.390433 1.112347,-2.002224 0.354026,-0.611791 0.854582,-1.512792 1.112347,-2.002225 0.257764,-0.489433 0.75832,-1.390434 1.112347,-2.002225 0.354026,-0.61179 0.854583,-1.512792 1.112347,-2.002224 0.257764,-0.489433 0.75832,-1.390434 1.112347,-2.002225 0.354027,-0.611791 0.854583,-1.512792 1.112347,-2.002225 0.257764,-0.489432 0.75832,-1.390434 1.112347,-2.002224 0.354027,-0.611791 0.854583,-1.512792 1.112347,-2.002225 0.257764,-0.489433 0.75832,-1.390434 1.112347,-2.002225 0.354027,-0.611791 0.854583,-1.512792 1.112347,-2.002224 0.257764,-0.489433 0.758258,-1.390434 1.112209,-2.002225 0.353951,-0.611791 0.897913,-1.612903 1.208808,-2.224694 0.694489,-1.366654 1.286843,-2.410481 1.451844,-2.558398 0.06824,-0.06118 3.46414,-6.067854 7.546436,-13.348165 11.148981,-19.88295 11.289333,-20.100712 13.617322,-21.128007 1.746916,-0.770879 4.678468,-0.950348 6.839698,-0.418725 0.87472,0.215164 3.31645,2.941725 4.68814,5.235015 0.79196,1.324058 1.49307,2.457434 1.55803,2.518613 0.065,0.06118 0.24645,0.361513 0.4033,0.667409 0.37039,0.722316 1.03151,1.888646 1.70241,3.003337 0.29458,0.489432 0.70252,1.265294 0.90653,1.724138 0.20401,0.458843 0.45343,0.83426 0.55425,0.83426 0.10083,0 0.25124,0.22525 0.33425,0.500556 0.13154,0.436276 1.35541,2.63558 2.92272,5.252154 0.2669,0.445576 0.64304,1.110471 0.83586,1.477546 0.19282,0.367074 0.59662,1.067853 0.89732,1.557286 0.30071,0.489432 0.71169,1.240267 0.91329,1.66852 0.2016,0.428254 0.43038,0.828699 0.5084,0.889878 0.078,0.06118 0.31915,0.461624 0.53586,0.889878 0.21671,0.428253 0.6353,1.179087 0.93021,1.66852 0.2949,0.489433 0.69395,1.190211 0.88678,1.557286 0.19282,0.367074 0.59327,1.067853 0.88988,1.557286 0.29661,0.489433 0.69432,1.190211 0.88381,1.557286 0.18948,0.367074 0.44112,0.817575 0.5592,1.001112 0.11807,0.183537 0.57592,0.984427 1.01743,1.779755 0.44152,0.795328 1.04777,1.846496 1.34723,2.335929 0.29946,0.489433 0.69529,1.190211 0.87962,1.557286 0.18433,0.367075 0.57783,1.067853 0.87444,1.557286 0.52279,0.86265 0.72554,1.223568 1.7531,3.12065 0.26691,0.492776 0.93579,1.677236 1.4864,2.632133 0.55061,0.954899 1.17969,2.053386 1.39794,2.441086 0.21826,0.387699 0.63785,1.105352 0.93243,1.594785 0.29457,0.489433 0.70251,1.265295 0.90652,1.724138 0.20401,0.458843 0.45343,0.83426 0.55425,0.83426 0.10083,0 0.25124,0.22525 0.33425,0.500556 0.083,0.275306 0.66539,1.384254 1.29419,2.46433 0.6288,1.080075 1.32184,2.28141 1.5401,2.669633 0.21825,0.388222 0.63784,1.106304 0.93242,1.595737 0.29458,0.489433 0.70251,1.265295 0.90653,1.724138 0.20401,0.458843 0.46017,0.83426 0.56924,0.83426 0.10907,0 0.19831,0.118763 0.19831,0.26392 0,0.145157 0.57564,1.255962 1.2792,2.468456 0.70356,1.212496 1.45778,2.520316 1.67603,2.906269 0.21826,0.385954 0.63785,1.102178 0.93243,1.591611 0.29457,0.489433 0.70251,1.265295 0.90652,1.724138 0.20401,0.458843 0.46017,0.83426 0.56925,0.83426 0.10907,0 0.19831,0.118763 0.19831,0.26392 0,0.228953 1.51403,2.959233 3.04588,5.492703 0.26812,0.44342 0.6544,1.18164 0.85842,1.64049 0.20401,0.45884 0.44932,0.83426 0.54513,0.83426 0.0958,0 0.23525,0.24327 0.30988,0.54061 0.0746,0.29734 0.26067,0.67581 0.41344,0.84105 0.15276,0.16525 0.62688,0.99816 1.05359,1.85093 0.42671,0.85278 1.10246,2.03609 1.50167,2.62958 0.3992,0.5935 0.72583,1.20032 0.72583,1.34849 0,0.14817 0.20022,0.48431 0.44494,0.74698 0.24471,0.26268 0.44494,0.61307 0.44494,0.77865 0,0.16558 0.20022,0.51597 0.44493,0.77864 0.24472,0.26267 0.44494,0.61306 0.44494,0.77864 0,0.16558 0.20023,0.51597 0.44494,0.77865 0.24472,0.26267 0.44494,0.5593 0.44494,0.65919 0,0.25805 3.0588,5.63577 3.4539,6.07235 0.18044,0.19939 0.32808,0.51096 0.32808,0.69238 0,0.18142 0.1789,0.52393 0.39756,0.76113 0.21866,0.2372 0.53114,0.75663 0.6944,1.15429 0.16326,0.39767 0.3848,0.72303 0.49232,0.72303 0.10751,0 0.19548,0.12581 0.19548,0.27958 0,0.34401 2.41797,4.67342 2.71548,4.86209 0.11804,0.0749 0.21962,0.22503 0.22573,0.3337 0.0213,0.37882 0.46862,1.19871 0.65401,1.19871 0.10271,0 0.1749,0.0751 0.16041,0.16685 -0.0624,0.39503 0.0536,0.6684 0.47592,1.1217 0.24727,0.26541 0.46104,0.55959 0.47505,0.65374 0.0543,0.36484 0.48911,1.17228 0.63129,1.17228 0.0823,0 0.15161,0.12514 0.15397,0.27809 0.006,0.37287 3.41139,6.396 3.61647,6.396 0.0887,0 0.16123,0.12551 0.16123,0.27892 0,0.21964 4.22742,7.96492 6.22257,11.40072 0.21316,0.36707 0.51942,1.15359 0.68058,1.7478 0.16116,0.59422 0.364,1.19489 0.45076,1.33482 0.0868,0.13993 0.19471,0.75498 0.23989,1.36677 0.0452,0.61179 0.15272,1.13871 0.23899,1.17093 0.25214,0.0942 -0.15497,3.88861 -0.53182,4.95673 -0.82236,2.3308 -2.32974,4.0249 -4.66873,5.24706 -0.67222,0.35124 -1.22245,0.71962 -1.22274,0.81861 -2.3e-4,0.099 -0.0986,0.11939 -0.2184,0.0453 -0.11983,-0.0741 -0.4452,-0.01 -0.72303,0.14302 -0.27783,0.15272 -0.60526,0.30358 -0.72762,0.33524 -0.12236,0.0317 -0.62292,0.15686 -1.11235,0.27824 -1.3123,0.32543 -140.410421,0.32713 -140.61154,0.002 z m 77.096517,-27.42502 v -7.8653 l -2.72525,-0.11298 c -1.49888,-0.0621 -5.152945,-0.13227 -8.12013,-0.15583 l -5.394884,-0.0428 v 8.02113 8.02113 h 8.120134 8.12013 z m 0,-48.085756 V 70.812013 H 98.9099 90.789766 l 0.002,26.863182 c 0.0011,14.774745 0.06446,27.383665 0.140878,28.019805 l 0.138946,1.15662 0.915851,0.0837 c 0.503717,0.046 4.094382,0.1012 7.979255,0.12258 l 7.063334,0.0389 z"
     id="path864"
     inkscape:connector-curvature="0"
     transform="scale(0.5)" /></svg>